<svg width="215" height="175" viewBox="0 0 215 175" fill="none" xmlns="http://www.w3.org/2000/svg">
<g style="mix-blend-mode:multiply" opacity="0.3">
<g style="mix-blend-mode:multiply" opacity="0.3">
<path d="M26.3199 36.3052H8.6799V139.835H26.3199V36.3052Z" fill="#2D2D2D"/>
<path d="M26.3199 36.3052H8.6799V139.835H26.3199V36.3052Z" stroke="#2D2D2D" stroke-width="8" stroke-linecap="round" stroke-linejoin="round"/>
</g>
<g style="mix-blend-mode:multiply" opacity="0.3">
<path d="M28.6996 139.768H6.29974V152.368H28.6996V139.768Z" fill="#2D2D2D"/>
<path d="M28.6996 139.768H6.29974V152.368H28.6996V139.768Z" stroke="#2D2D2D" stroke-width="8" stroke-linecap="round" stroke-linejoin="round"/>
</g>
<g style="mix-blend-mode:multiply" opacity="0.3">
<path d="M8.6799 152.368H26.3199V159.578C26.3199 160.544 25.9362 161.47 25.2532 162.153C24.5703 162.836 23.6439 163.22 22.6781 163.22H12.3213C11.3554 163.22 10.4291 162.836 9.74614 162.153C9.06316 161.47 8.67947 160.544 8.67947 159.578V152.368H8.6799Z" fill="#2D2D2D"/>
<path d="M8.6799 152.368H26.3199V159.578C26.3199 160.544 25.9362 161.47 25.2532 162.153C24.5703 162.836 23.6439 163.22 22.6781 163.22H12.3213C11.3554 163.22 10.4291 162.836 9.74614 162.153C9.06316 161.47 8.67947 160.544 8.67947 159.578V152.368H8.6799Z" stroke="#2D2D2D" stroke-width="8" stroke-linecap="round" stroke-linejoin="round"/>
</g>
<g style="mix-blend-mode:multiply" opacity="0.3">
<path d="M26.3199 36.3052H8.6799L17.4999 8.37988L26.3199 36.3052Z" fill="#2D2D2D"/>
<path d="M26.3199 36.3052H8.6799L17.4999 8.37988L26.3199 36.3052Z" stroke="#2D2D2D" stroke-width="8" stroke-linecap="round" stroke-linejoin="round"/>
</g>
</g>
<g style="mix-blend-mode:multiply" opacity="0.3">
<g style="mix-blend-mode:multiply" opacity="0.3">
<path d="M80.8712 75.6496H65.1913V164.69H80.8712V75.6496Z" fill="#2D2D2D"/>
<path d="M80.8712 75.6496H65.1913V164.69H80.8712V75.6496Z" stroke="#2D2D2D" stroke-width="8" stroke-linecap="round" stroke-linejoin="round"/>
</g>
<g style="mix-blend-mode:multiply" opacity="0.3">
<path d="M83.1114 15.5896H62.9514V75.6496H83.1114V15.5896Z" fill="#2D2D2D"/>
<path d="M83.1114 15.5896H62.9514V75.6496H83.1114V15.5896Z" stroke="#2D2D2D" stroke-width="8" stroke-linecap="round" stroke-linejoin="round"/>
</g>
<g style="mix-blend-mode:multiply" opacity="0.3">
<path d="M73.0314 6.77001C74.061 6.77001 75.0805 6.9728 76.0317 7.3668C76.9829 7.76081 77.8472 8.33831 78.5753 9.06634C79.3033 9.79436 79.8808 10.6586 80.2748 11.6099C80.6688 12.5611 80.8716 13.5806 80.8716 14.6102V15.59H65.1913V14.6093C65.1915 12.5301 66.0176 10.5362 67.4879 9.06604C68.9582 7.59591 70.9523 6.77001 73.0314 6.77001Z" fill="#2D2D2D"/>
<path d="M73.0314 6.77001C74.061 6.77001 75.0805 6.9728 76.0317 7.3668C76.9829 7.76081 77.8472 8.33831 78.5753 9.06634C79.3033 9.79436 79.8808 10.6586 80.2748 11.6099C80.6688 12.5611 80.8716 13.5806 80.8716 14.6102V15.59H65.1913V14.6093C65.1915 12.5301 66.0176 10.5362 67.4879 9.06604C68.9582 7.59591 70.9523 6.77001 73.0314 6.77001Z" stroke="#2D2D2D" stroke-width="8" stroke-linecap="round" stroke-linejoin="round"/>
</g>
<g style="mix-blend-mode:multiply" opacity="0.3">
<path d="M57.1353 24.9858V62.5023" stroke="#2D2D2D" stroke-width="8" stroke-linecap="round" stroke-linejoin="round"/>
</g>
<g style="mix-blend-mode:multiply" opacity="0.3">
<path d="M62.9502 31.0595H57.1353" stroke="#2D2D2D" stroke-width="8" stroke-linecap="round" stroke-linejoin="round"/>
</g>
<g style="mix-blend-mode:multiply" opacity="0.3">
<path d="M79.0165 164.69C79.0258 165.482 78.878 166.268 78.5814 167.002C78.2848 167.737 77.8455 168.405 77.2888 168.968C76.7321 169.531 76.0691 169.979 75.3383 170.284C74.6076 170.589 73.8234 170.746 73.0314 170.746C72.2395 170.746 71.4553 170.589 70.7245 170.284C69.9938 169.979 69.3308 169.531 68.7741 168.968C68.2174 168.405 67.7781 167.737 67.4815 167.002C67.1849 166.268 67.0371 165.482 67.0464 164.69H79.0165Z" fill="#2D2D2D"/>
<path d="M79.0165 164.69C79.0258 165.482 78.878 166.268 78.5814 167.002C78.2848 167.737 77.8455 168.405 77.2888 168.968C76.7321 169.531 76.0691 169.979 75.3383 170.284C74.6076 170.589 73.8234 170.746 73.0314 170.746C72.2395 170.746 71.4553 170.589 70.7245 170.284C69.9938 169.979 69.3308 169.531 68.7741 168.968C68.2174 168.405 67.7781 167.737 67.4815 167.002C67.1849 166.268 67.0371 165.482 67.0464 164.69H79.0165Z" stroke="#2D2D2D" stroke-width="8" stroke-linecap="round" stroke-linejoin="round"/>
</g>
</g>
<path d="M77.0912 71.4496H61.4113V160.49H77.0912V71.4496Z" fill="#00B3C6"/>
<g style="mix-blend-mode:multiply" opacity="0.5">
<path d="M77.0916 71.4496H71.3964V160.49H77.0916V71.4496Z" fill="#00B3C6"/>
</g>
<g style="mix-blend-mode:screen" opacity="0.35">
<path d="M67.046 71.4496H61.4113V160.49H67.046V71.4496Z" fill="#00B3C6"/>
</g>
<path d="M77.0916 162.17H61.4113C60.9657 162.17 60.5384 161.993 60.2234 161.678C59.9083 161.363 59.7313 160.936 59.7313 160.49V71.45C59.7313 71.0044 59.9083 70.5771 60.2234 70.262C60.5384 69.947 60.9657 69.77 61.4113 69.77H77.0916C77.5371 69.77 77.9645 69.947 78.2795 70.262C78.5946 70.5771 78.7716 71.0044 78.7716 71.45V160.49C78.7716 160.711 78.7281 160.929 78.6437 161.133C78.5593 161.337 78.4355 161.522 78.2795 161.678C78.1235 161.834 77.9383 161.958 77.7345 162.042C77.5307 162.127 77.3122 162.17 77.0916 162.17ZM63.0913 158.81H75.4116V73.13H63.0913V158.81Z" fill="#330E00"/>
<path d="M79.3314 11.3896H59.1714V71.4496H79.3314V11.3896Z" fill="#565656"/>
<g style="mix-blend-mode:screen" opacity="0.27">
<path d="M65.1913 11.3896H59.1714V71.4496H65.1913V11.3896Z" fill="#565656"/>
</g>
<g style="mix-blend-mode:multiply" opacity="0.27">
<path d="M79.0513 11.3896H73.0314V71.4496H79.0513V11.3896Z" fill="#565656"/>
</g>
<path d="M79.3314 73.13H59.1714C58.7259 73.13 58.2986 72.953 57.9835 72.638C57.6684 72.3229 57.4914 71.8956 57.4914 71.45V11.39C57.4914 10.9445 57.6684 10.5171 57.9835 10.2021C58.2986 9.88701 58.7259 9.71001 59.1714 9.71001H79.3314C79.777 9.71001 80.2043 9.88701 80.5194 10.2021C80.8344 10.5171 81.0114 10.9445 81.0114 11.39V71.45C81.0114 71.8956 80.8344 72.3229 80.5194 72.638C80.2043 72.953 79.777 73.13 79.3314 73.13ZM60.8514 69.77H77.6514V13.07H60.8514V69.77Z" fill="#330E00"/>
<path d="M69.2514 2.57C71.3308 2.57 73.325 3.39601 74.7953 4.86633C76.2656 6.33664 77.0916 8.33081 77.0916 10.4101V11.39H61.4113V10.4093C61.4115 8.33012 62.2376 6.33616 63.7079 4.86603C65.1782 3.3959 67.1723 2.57 69.2514 2.57Z" fill="#00B3C6"/>
<path d="M77.0916 13.07H61.4113C60.9657 13.07 60.5384 12.893 60.2234 12.5779C59.9083 12.2629 59.7313 11.8356 59.7313 11.39V10.4093C59.7313 7.88441 60.7343 5.46293 62.5197 3.67755C64.305 1.89218 66.7265 0.88916 69.2514 0.88916C71.7763 0.88916 74.1978 1.89218 75.9832 3.67755C77.7686 5.46293 78.7716 7.88441 78.7716 10.4093V11.39C78.7716 11.6106 78.7281 11.8291 78.6437 12.0329C78.5593 12.2367 78.4355 12.4219 78.2795 12.5779C78.1235 12.7339 77.9383 12.8577 77.7345 12.9421C77.5307 13.0265 77.3122 13.07 77.0916 13.07ZM63.1304 9.71H75.3721C75.2006 8.20676 74.482 6.81919 73.3531 5.81179C72.2243 4.80439 70.7642 4.24762 69.2512 4.24762C67.7382 4.24762 66.2782 4.80439 65.1493 5.81179C64.0205 6.81919 63.3018 8.20676 63.1304 9.71Z" fill="#330E00"/>
<path d="M53.3553 59.984C52.9097 59.984 52.4824 59.807 52.1673 59.492C51.8523 59.1769 51.6753 58.7496 51.6753 58.304V20.7863C51.6753 20.3407 51.8523 19.9134 52.1673 19.5983C52.4824 19.2833 52.9097 19.1063 53.3553 19.1063C53.8009 19.1063 54.2282 19.2833 54.5432 19.5983C54.8583 19.9134 55.0353 20.3407 55.0353 20.7863V58.304C55.0353 58.7496 54.8583 59.1769 54.5432 59.492C54.2282 59.807 53.8009 59.984 53.3553 59.984Z" fill="#330E00"/>
<path d="M59.1702 28.5399H53.3553C52.9097 28.5399 52.4824 28.3629 52.1673 28.0478C51.8523 27.7328 51.6753 27.3054 51.6753 26.8599C51.6753 26.4143 51.8523 25.987 52.1673 25.6719C52.4824 25.3569 52.9097 25.1799 53.3553 25.1799H59.1702C59.6158 25.1799 60.0431 25.3569 60.3581 25.6719C60.6732 25.987 60.8502 26.4143 60.8502 26.8599C60.8502 27.3054 60.6732 27.7328 60.3581 28.0478C60.0431 28.3629 59.6158 28.5399 59.1702 28.5399Z" fill="#330E00"/>
<path d="M75.2365 160.49C75.2458 161.282 75.098 162.068 74.8014 162.802C74.5048 163.537 74.0655 164.205 73.5088 164.768C72.9521 165.331 72.2891 165.779 71.5584 166.084C70.8276 166.389 70.0434 166.546 69.2514 166.546C68.4595 166.546 67.6753 166.389 66.9445 166.084C66.2138 165.779 65.5508 165.331 64.9941 164.768C64.4374 164.205 63.9981 163.537 63.7015 162.802C63.4049 162.068 63.2571 161.282 63.2664 160.49H75.2365Z" fill="#565656"/>
<path d="M69.2514 168.155C67.2193 168.153 65.271 167.344 63.834 165.907C62.3971 164.47 61.5888 162.522 61.5864 160.49C61.5864 160.044 61.7634 159.617 62.0785 159.302C62.3936 158.987 62.8209 158.81 63.2664 158.81H75.2364C75.682 158.81 76.1093 158.987 76.4244 159.302C76.7394 159.617 76.9164 160.044 76.9164 160.49C76.914 162.522 76.1056 164.47 74.6687 165.907C73.2318 167.344 71.2836 168.153 69.2514 168.155ZM65.2875 162.17C65.6174 162.948 66.1692 163.613 66.8741 164.079C67.579 164.546 68.4058 164.795 69.2512 164.795C70.0967 164.795 70.9235 164.546 71.6284 164.079C72.3333 163.613 72.8851 162.948 73.215 162.17H65.2875Z" fill="#330E00"/>
<path d="M21.6999 31.2653H4.05989V134.795H21.6999V31.2653Z" fill="#FF1F1F"/>
<path d="M21.6995 136.475H4.05947C3.61391 136.475 3.18659 136.298 2.87153 135.983C2.55647 135.668 2.37947 135.241 2.37947 134.795V31.2653C2.37947 30.8197 2.55647 30.3924 2.87153 30.0773C3.18659 29.7622 3.61391 29.5853 4.05947 29.5853H21.6995C22.145 29.5853 22.5723 29.7622 22.8874 30.0773C23.2025 30.3924 23.3795 30.8197 23.3795 31.2653V134.795C23.3795 135.241 23.2025 135.668 22.8874 135.983C22.5723 136.298 22.145 136.475 21.6995 136.475ZM5.73947 133.115H20.0195V32.9453H5.73947V133.115Z" fill="#330E00"/>
<path d="M15.9547 136.475H9.80507C9.35951 136.475 8.9322 136.298 8.61714 135.983C8.30207 135.668 8.12508 135.241 8.12508 134.795V31.2653C8.12508 30.8197 8.30207 30.3924 8.61714 30.0773C8.9322 29.7622 9.35951 29.5853 9.80507 29.5853H15.9547C16.4003 29.5853 16.8276 29.7622 17.1426 30.0773C17.4577 30.3924 17.6347 30.8197 17.6347 31.2653V134.795C17.6347 135.241 17.4577 135.668 17.1426 135.983C16.8276 136.298 16.4003 136.475 15.9547 136.475ZM11.4851 133.115H14.2747V32.9453H11.4851V133.115Z" fill="#330E00"/>
<path d="M24.0796 134.728H1.67973V147.328H24.0796V134.728Z" fill="#FDD2A7"/>
<g style="mix-blend-mode:multiply" opacity="0.5">
<path d="M24.08 134.728H17.4999V147.328H24.08V134.728Z" fill="#FDD2A7"/>
</g>
<g style="mix-blend-mode:screen">
<path d="M7.69624 134.728H1.67973V147.328H7.69624V134.728Z" fill="#FDD2A7"/>
</g>
<path d="M24.0796 149.008H1.67976C1.23419 149.008 0.806876 148.831 0.491815 148.516C0.176754 148.2 -0.000244141 147.773 -0.000244141 147.328V134.728C-0.000244141 134.282 0.176754 133.855 0.491815 133.54C0.806876 133.225 1.23419 133.048 1.67976 133.048H24.0796C24.5252 133.048 24.9525 133.225 25.2676 133.54C25.5826 133.855 25.7596 134.282 25.7596 134.728V147.328C25.7596 147.548 25.7162 147.767 25.6317 147.971C25.5473 148.174 25.4236 148.36 25.2676 148.516C25.1116 148.672 24.9263 148.795 24.7225 148.88C24.5187 148.964 24.3002 149.008 24.0796 149.008ZM3.35976 145.648H22.3996V136.408H3.35976V145.648Z" fill="#330E00"/>
<path d="M4.05989 147.328H21.6999V154.538C21.6999 155.504 21.3162 156.43 20.6332 157.113C19.9503 157.796 19.0239 158.18 18.0581 158.18H7.70128C6.73541 158.18 5.8091 157.796 5.12613 157.113C4.44315 156.43 4.05946 155.504 4.05946 154.538V147.328H4.05989Z" fill="#3BABFF"/>
<path d="M18.0581 159.86H7.70129C6.29036 159.858 4.93771 159.297 3.94004 158.299C2.94236 157.302 2.38114 155.949 2.37947 154.538V147.328C2.37947 146.882 2.55647 146.455 2.87153 146.14C3.18659 145.825 3.61391 145.648 4.05947 145.648H21.6995C22.145 145.648 22.5723 145.825 22.8874 146.14C23.2025 146.455 23.3795 146.882 23.3795 147.328V154.538C23.3778 155.949 22.8166 157.302 21.8191 158.299C20.8215 159.297 19.4689 159.858 18.0581 159.86ZM5.73947 149.008V154.538C5.74014 155.058 5.94704 155.557 6.3148 155.925C6.68257 156.292 7.18118 156.499 7.70129 156.5H18.0581C18.5781 156.499 19.0767 156.292 19.4444 155.925C19.8121 155.557 20.0189 155.058 20.0195 154.538V149.008H5.73947Z" fill="#330E00"/>
<path d="M21.6999 31.2653H4.05989L12.8799 3.33987L21.6999 31.2653Z" fill="#FDD2A7"/>
<path d="M21.6995 32.9452H4.05948C3.79576 32.9451 3.53578 32.8829 3.30056 32.7637C3.06534 32.6444 2.86151 32.4715 2.70554 32.2588C2.54957 32.0462 2.44585 31.7998 2.40278 31.5397C2.35971 31.2795 2.37849 31.0128 2.4576 30.7613L11.2776 2.83629C11.3851 2.49566 11.5984 2.19816 11.8865 1.98699C12.1746 1.77582 12.5225 1.66196 12.8797 1.66196C13.2369 1.66196 13.5848 1.77582 13.8729 1.98699C14.161 2.19816 14.3743 2.49566 14.4818 2.83629L23.3018 30.7613C23.3809 31.0129 23.3997 31.2795 23.3566 31.5398C23.3135 31.8 23.2097 32.0464 23.0537 32.259C22.8977 32.4717 22.6938 32.6446 22.4585 32.7638C22.2233 32.883 21.9632 32.9452 21.6995 32.9452ZM6.35184 29.5852H19.4071L12.8795 8.91831L6.35184 29.5852Z" fill="#330E00"/>
<path d="M12.8795 3.33987L9.14314 15.1696H16.6158L12.8795 3.33987Z" fill="#330E00"/>
<path d="M67.1964 154.12C66.8622 154.12 66.5417 153.987 66.3054 153.751C66.0691 153.514 65.9364 153.194 65.9364 152.86V118.91C65.9364 118.576 66.0691 118.255 66.3054 118.019C66.5417 117.783 66.8622 117.65 67.1964 117.65C67.5306 117.65 67.8511 117.783 68.0874 118.019C68.3236 118.255 68.4564 118.576 68.4564 118.91V152.86C68.4563 153.194 68.3235 153.515 68.0872 153.751C67.8509 153.987 67.5305 154.12 67.1964 154.12Z" fill="#330E00"/>
<path d="M77.0916 162.17H61.4113C60.9657 162.17 60.5384 161.993 60.2234 161.678C59.9083 161.363 59.7313 160.936 59.7313 160.49V71.45C59.7313 71.0044 59.9083 70.5771 60.2234 70.262C60.5384 69.947 60.9657 69.77 61.4113 69.77H77.0916C77.5371 69.77 77.9645 69.947 78.2795 70.262C78.5946 70.5771 78.7716 71.0044 78.7716 71.45V160.49C78.7716 160.711 78.7281 160.929 78.6437 161.133C78.5593 161.337 78.4355 161.522 78.2795 161.678C78.1235 161.834 77.9383 161.958 77.7345 162.042C77.5307 162.127 77.3122 162.17 77.0916 162.17ZM63.0913 158.81H75.4116V73.13H63.0913V158.81Z" fill="#330E00"/>
<path d="M79.3314 73.13H59.1714C58.7259 73.13 58.2986 72.953 57.9835 72.638C57.6684 72.3229 57.4914 71.8956 57.4914 71.45V11.39C57.4914 10.9445 57.6684 10.5171 57.9835 10.2021C58.2986 9.88701 58.7259 9.71001 59.1714 9.71001H79.3314C79.777 9.71001 80.2043 9.88701 80.5194 10.2021C80.8344 10.5171 81.0114 10.9445 81.0114 11.39V71.45C81.0114 71.8956 80.8344 72.3229 80.5194 72.638C80.2043 72.953 79.777 73.13 79.3314 73.13ZM60.8514 69.77H77.6514V13.07H60.8514V69.77Z" fill="#330E00"/>
<path d="M77.0916 13.07H61.4113C60.9657 13.07 60.5384 12.893 60.2234 12.5779C59.9083 12.2629 59.7313 11.8356 59.7313 11.39V10.4093C59.7313 7.88441 60.7343 5.46293 62.5197 3.67755C64.305 1.89218 66.7265 0.88916 69.2514 0.88916C71.7763 0.88916 74.1978 1.89218 75.9832 3.67755C77.7686 5.46293 78.7716 7.88441 78.7716 10.4093V11.39C78.7716 11.6106 78.7281 11.8291 78.6437 12.0329C78.5593 12.2367 78.4355 12.4219 78.2795 12.5779C78.1235 12.7339 77.9383 12.8577 77.7345 12.9421C77.5307 13.0265 77.3122 13.07 77.0916 13.07ZM63.1304 9.71H75.3721C75.2006 8.20676 74.482 6.81919 73.3531 5.81179C72.2243 4.80439 70.7642 4.24762 69.2512 4.24762C67.7382 4.24762 66.2782 4.80439 65.1493 5.81179C64.0205 6.81919 63.3018 8.20676 63.1304 9.71Z" fill="#330E00"/>
<path d="M53.3553 59.984C52.9097 59.984 52.4824 59.807 52.1673 59.492C51.8523 59.1769 51.6753 58.7496 51.6753 58.304V20.7863C51.6753 20.3407 51.8523 19.9134 52.1673 19.5983C52.4824 19.2833 52.9097 19.1063 53.3553 19.1063C53.8009 19.1063 54.2282 19.2833 54.5432 19.5983C54.8583 19.9134 55.0353 20.3407 55.0353 20.7863V58.304C55.0353 58.7496 54.8583 59.1769 54.5432 59.492C54.2282 59.807 53.8009 59.984 53.3553 59.984Z" fill="#330E00"/>
<path d="M59.1702 28.5399H53.3553C52.9097 28.5399 52.4824 28.3629 52.1673 28.0478C51.8523 27.7328 51.6753 27.3054 51.6753 26.8599C51.6753 26.4143 51.8523 25.987 52.1673 25.6719C52.4824 25.3569 52.9097 25.1799 53.3553 25.1799H59.1702C59.6158 25.1799 60.0431 25.3569 60.3581 25.6719C60.6732 25.987 60.8502 26.4143 60.8502 26.8599C60.8502 27.3054 60.6732 27.7328 60.3581 28.0478C60.0431 28.3629 59.6158 28.5399 59.1702 28.5399Z" fill="#330E00"/>
<path d="M69.2514 168.155C67.2193 168.153 65.271 167.344 63.834 165.907C62.3971 164.47 61.5888 162.522 61.5864 160.49C61.5864 160.044 61.7634 159.617 62.0785 159.302C62.3936 158.987 62.8209 158.81 63.2664 158.81H75.2364C75.682 158.81 76.1093 158.987 76.4244 159.302C76.7394 159.617 76.9164 160.044 76.9164 160.49C76.914 162.522 76.1056 164.47 74.6687 165.907C73.2318 167.344 71.2836 168.153 69.2514 168.155ZM65.2875 162.17C65.6174 162.948 66.1692 163.613 66.8741 164.079C67.579 164.546 68.4058 164.795 69.2512 164.795C70.0967 164.795 70.9235 164.546 71.6284 164.079C72.3333 163.613 72.8851 162.948 73.215 162.17H65.2875Z" fill="#330E00"/>
<g style="mix-blend-mode:multiply" opacity="0.3">
<g style="mix-blend-mode:multiply" opacity="0.3">
<path d="M207.617 54.5171L187.23 39.7049C183.852 37.2507 179.125 37.9995 176.67 41.3774L109.522 133.799C107.068 137.177 107.816 141.905 111.194 144.359L131.582 159.172C134.959 161.626 139.687 160.877 142.141 157.499L209.29 65.0769C211.744 61.699 210.995 56.9712 207.617 54.5171Z" fill="#2D2D2D"/>
<path d="M207.617 54.5171L187.23 39.7049C183.852 37.2507 179.125 37.9995 176.67 41.3774L109.522 133.799C107.068 137.177 107.816 141.905 111.194 144.359L131.582 159.172C134.959 161.626 139.687 160.877 142.141 157.499L209.29 65.0769C211.744 61.699 210.995 56.9712 207.617 54.5171Z" stroke="#2D2D2D" stroke-width="8" stroke-linecap="round" stroke-linejoin="round"/>
</g>
<g style="mix-blend-mode:multiply" opacity="0.3">
<path d="M140.893 18.1604H115.693C111.518 18.1604 108.133 21.5451 108.133 25.7204V139.96C108.133 144.136 111.518 147.52 115.693 147.52H140.893C145.068 147.52 148.453 144.136 148.453 139.96V25.7204C148.453 21.5451 145.068 18.1604 140.893 18.1604Z" fill="#2D2D2D"/>
<path d="M140.893 18.1604H115.693C111.518 18.1604 108.133 21.5451 108.133 25.7204V139.96C108.133 144.136 111.518 147.52 115.693 147.52H140.893C145.068 147.52 148.453 144.136 148.453 139.96V25.7204C148.453 21.5451 145.068 18.1604 140.893 18.1604Z" stroke="#2D2D2D" stroke-width="8" stroke-linecap="round" stroke-linejoin="round"/>
</g>
<g style="mix-blend-mode:multiply" opacity="0.3">
<path d="M173.476 29.5479L149.252 22.6019C145.239 21.451 141.052 23.7716 139.902 27.7852L108.413 137.6C107.262 141.613 109.582 145.8 113.596 146.951L137.82 153.897C141.833 155.048 146.02 152.727 147.171 148.713L178.66 38.8989C179.81 34.8853 177.49 30.6988 173.476 29.5479Z" fill="#2D2D2D"/>
<path d="M173.476 29.5479L149.252 22.6019C145.239 21.451 141.052 23.7716 139.902 27.7852L108.413 137.6C107.262 141.613 109.582 145.8 113.596 146.951L137.82 153.897C141.833 155.048 146.02 152.727 147.171 148.713L178.66 38.8989C179.81 34.8853 177.49 30.6988 173.476 29.5479Z" stroke="#2D2D2D" stroke-width="8" stroke-linecap="round" stroke-linejoin="round"/>
</g>
</g>
<path d="M205.517 47.797L185.13 32.9848C181.752 30.5306 177.024 31.2795 174.57 34.6573L107.422 127.079C104.967 130.457 105.716 135.185 109.094 137.639L129.481 152.451C132.859 154.906 137.587 154.157 140.041 150.779L207.19 58.3568C209.644 54.979 208.895 50.2512 205.517 47.797Z" fill="white"/>
<path d="M133.913 155.572C131.966 155.573 130.069 154.957 128.495 153.811L108.108 138.998C106.127 137.557 104.799 135.388 104.415 132.968C104.031 130.549 104.623 128.076 106.06 126.092L173.211 33.6698C174.653 31.6896 176.822 30.3623 179.241 29.9791C181.661 29.5959 184.134 30.188 186.117 31.6256L206.505 46.4378C208.485 47.8799 209.812 50.0487 210.196 52.4682C210.579 54.8877 209.987 57.3604 208.549 59.3439L141.4 151.766C140.542 152.947 139.416 153.908 138.114 154.569C136.813 155.231 135.373 155.574 133.913 155.572ZM130.469 151.092C131.094 151.546 131.802 151.872 132.553 152.053C133.304 152.233 134.083 152.263 134.845 152.142C135.608 152.021 136.34 151.751 136.998 151.348C137.656 150.944 138.229 150.415 138.682 149.79L205.83 57.3691C206.745 56.1067 207.122 54.533 206.878 52.9933C206.634 51.4536 205.789 50.0736 204.528 49.156L184.141 34.3439C182.878 33.4293 181.305 33.0527 179.765 33.2968C178.226 33.5409 176.846 34.3857 175.928 35.6459L108.781 128.066C107.866 129.328 107.489 130.902 107.733 132.442C107.977 133.981 108.822 135.361 110.083 136.279L130.47 151.091L130.469 151.092Z" fill="#330E00"/>
<path d="M162.752 121.198C162.397 121.198 162.052 121.086 161.765 120.878L129.146 97.1784C128.967 97.0487 128.816 96.8851 128.701 96.697C128.586 96.5088 128.508 96.2998 128.474 96.0819C128.439 95.8639 128.448 95.6413 128.5 95.4268C128.551 95.2122 128.645 95.0099 128.774 94.8314L173.21 33.6697C174.652 31.6895 176.821 30.3621 179.241 29.9789C181.661 29.5957 184.133 30.1879 186.117 31.6256L206.505 46.4377C208.485 47.8799 209.812 50.0486 210.195 52.4682C210.578 54.8877 209.986 57.3604 208.549 59.3439L164.112 120.506C163.956 120.721 163.752 120.895 163.515 121.015C163.279 121.136 163.017 121.198 162.752 121.198ZM132.478 95.4476L162.382 117.172L205.831 57.3691C206.746 56.1067 207.123 54.533 206.879 52.9933C206.634 51.4536 205.79 50.0736 204.529 49.156L184.142 34.3439C182.88 33.4294 181.306 33.0529 179.767 33.297C178.227 33.541 176.847 34.3858 175.929 35.6459L132.478 95.4476Z" fill="#330E00"/>
<path d="M185.13 32.9848L205.517 47.797C207.139 48.9756 208.227 50.7502 208.54 52.7305C208.854 54.7109 208.368 56.7347 207.19 58.3569L195.34 74.6666L162.72 50.9671L174.57 34.6574C175.749 33.0352 177.523 31.9477 179.504 31.6341C181.484 31.3204 183.508 31.8063 185.13 32.9848Z" fill="#8C6239"/>
<path d="M195.339 76.3468C194.984 76.3469 194.639 76.2344 194.352 76.0255L161.733 52.3262C161.372 52.0643 161.13 51.6699 161.061 51.2299C160.991 50.7898 161.099 50.3401 161.361 49.9796L173.211 33.6698C174.653 31.6896 176.822 30.3623 179.241 29.9791C181.661 29.5959 184.134 30.188 186.117 31.6256L206.505 46.4378C208.485 47.8799 209.812 50.0487 210.196 52.4682C210.579 54.8877 209.987 57.3604 208.549 59.3439L196.699 75.6538C196.543 75.8685 196.339 76.0433 196.102 76.1637C195.866 76.2842 195.604 76.3469 195.339 76.3468ZM165.066 50.5953L194.968 72.3198L205.83 57.3678C206.745 56.1055 207.122 54.5318 206.878 52.9921C206.634 51.4523 205.789 50.0723 204.528 49.1547L184.141 34.3426C182.878 33.4281 181.305 33.0516 179.765 33.2957C178.226 33.5398 176.846 34.3845 175.928 35.6446L165.066 50.5953Z" fill="#330E00"/>
<path d="M179.046 97.0924L146.427 73.3929L130.134 95.8189L162.753 119.518L179.046 97.0924Z" fill="#42210B"/>
<path d="M195.34 74.6665L162.72 50.967L146.427 73.393L179.046 97.0925L195.34 74.6665Z" fill="#603813"/>
<path d="M179.047 98.7727C178.692 98.7726 178.346 98.6603 178.059 98.4518L145.439 74.7521C145.079 74.4902 144.837 74.0958 144.767 73.6558C144.697 73.2157 144.805 72.766 145.067 72.4055L161.361 49.9796C161.49 49.8011 161.654 49.6498 161.842 49.5345C162.03 49.4192 162.239 49.3421 162.457 49.3076C162.675 49.2731 162.898 49.2818 163.112 49.3334C163.327 49.3849 163.529 49.4782 163.708 49.6079L196.327 73.3073C196.688 73.5692 196.93 73.9635 196.999 74.4036C197.069 74.8436 196.961 75.2933 196.699 75.6538L180.406 98.0818C180.144 98.4423 179.75 98.684 179.31 98.7538C179.222 98.7668 179.135 98.7731 179.047 98.7727ZM148.774 73.0212L178.676 94.7462L192.995 75.0381L163.093 53.3136L148.774 73.0212Z" fill="#330E00"/>
<path d="M162.752 121.198C162.397 121.198 162.052 121.086 161.765 120.878L129.146 97.1783C128.967 97.0487 128.816 96.8851 128.701 96.6969C128.586 96.5088 128.508 96.2998 128.474 96.0819C128.439 95.8639 128.448 95.6413 128.5 95.4267C128.551 95.2122 128.645 95.0099 128.774 94.8314L145.067 72.4055C145.197 72.2269 145.361 72.0757 145.549 71.9604C145.737 71.8451 145.946 71.768 146.164 71.7335C146.382 71.699 146.604 71.7077 146.819 71.7592C147.033 71.8108 147.236 71.9041 147.414 72.0338L180.034 95.7331C180.213 95.8628 180.364 96.0264 180.479 96.2145C180.594 96.4027 180.671 96.6117 180.706 96.8296C180.741 97.0475 180.732 97.2702 180.68 97.4847C180.629 97.6993 180.535 97.9016 180.406 98.0801L164.112 120.506C163.956 120.721 163.752 120.895 163.515 121.015C163.279 121.136 163.017 121.198 162.752 121.198ZM132.478 95.4475L162.382 117.172L176.701 97.4639L146.8 75.7394L132.478 95.4475Z" fill="#330E00"/>
<path d="M116.577 136.179C115.446 136.177 114.347 135.794 113.46 135.092C112.572 134.39 111.946 133.409 111.684 132.309C111.421 131.208 111.536 130.05 112.011 129.023C112.487 127.996 113.294 127.158 114.303 126.646C115.312 126.133 116.464 125.975 117.574 126.196C118.684 126.418 119.687 127.007 120.421 127.868C121.155 128.73 121.578 129.813 121.622 130.944C121.666 132.075 121.328 133.188 120.662 134.103C120.194 134.747 119.579 135.271 118.869 135.632C118.159 135.993 117.374 136.18 116.577 136.179ZM116.588 129.462C116.499 129.462 116.41 129.469 116.321 129.483C115.894 129.551 115.51 129.782 115.25 130.127C114.989 130.472 114.872 130.904 114.924 131.333C114.975 131.763 115.19 132.155 115.524 132.43C115.859 132.704 116.286 132.838 116.717 132.804C117.148 132.77 117.549 132.571 117.836 132.248C118.124 131.924 118.275 131.503 118.258 131.071C118.241 130.639 118.058 130.23 117.747 129.93C117.436 129.63 117.02 129.462 116.588 129.462Z" fill="#330E00"/>
<g style="mix-blend-mode:overlay" opacity="0.3">
<path d="M174.316 24.5079L150.093 17.564C149.138 17.2903 148.139 17.2073 147.153 17.3196C146.166 17.432 145.212 17.7375 144.343 18.2188C143.475 18.7001 142.71 19.3478 142.092 20.1248C141.474 20.9018 141.015 21.7929 140.741 22.7472L109.252 132.56C108.7 134.487 108.935 136.555 109.907 138.309C110.879 140.063 112.508 141.358 114.435 141.911L136.531 140.645C136.726 140.701 138.597 140.761 138.793 140.801H140.801L144.027 140.453C145.706 140.272 147.292 139.593 148.581 138.503C149.87 137.412 150.803 135.961 151.26 134.335L179.499 33.86C179.773 32.9056 179.856 31.9066 179.744 30.9201C179.632 29.9335 179.326 28.9788 178.845 28.1103C178.364 27.2419 177.716 26.4767 176.939 25.8586C176.162 25.2405 175.271 24.7815 174.316 24.5079Z" fill="#2D2D2D"/>
<path d="M174.316 24.5079L150.093 17.564C149.138 17.2903 148.139 17.2073 147.153 17.3196C146.166 17.432 145.212 17.7375 144.343 18.2188C143.475 18.7001 142.71 19.3478 142.092 20.1248C141.474 20.9018 141.015 21.7929 140.741 22.7472L109.252 132.56C108.7 134.487 108.935 136.555 109.907 138.309C110.879 140.063 112.508 141.358 114.435 141.911L136.531 140.645C136.726 140.701 138.597 140.761 138.793 140.801H140.801L144.027 140.453C145.706 140.272 147.292 139.593 148.581 138.503C149.87 137.412 150.803 135.961 151.26 134.335L179.499 33.86C179.773 32.9056 179.856 31.9066 179.744 30.9201C179.632 29.9335 179.326 28.9788 178.845 28.1103C178.364 27.2419 177.716 26.4767 176.939 25.8586C176.162 25.2405 175.271 24.7815 174.316 24.5079Z" stroke="#2D2D2D" stroke-width="8" stroke-linecap="round" stroke-linejoin="round"/>
</g>
<path d="M171.376 22.8278L147.152 15.8817C143.139 14.7308 138.952 17.0515 137.801 21.065L106.313 130.88C105.162 134.893 107.482 139.08 111.496 140.231L135.72 147.177C139.733 148.327 143.92 146.007 145.071 141.993L176.56 32.1787C177.71 28.1652 175.39 23.9786 171.376 22.8278Z" fill="white"/>
<path d="M137.817 149.154C136.951 149.153 136.088 149.031 135.255 148.791L111.033 141.845C108.678 141.17 106.687 139.587 105.499 137.444C104.311 135.301 104.023 132.773 104.698 130.418L136.187 20.6023C136.862 18.2467 138.446 16.2559 140.589 15.0678C142.732 13.8797 145.26 13.5916 147.615 14.267L171.839 21.213C173.005 21.5474 174.095 22.1083 175.044 22.8637C175.994 23.6191 176.785 24.5541 177.374 25.6154C177.962 26.6767 178.335 27.8435 178.473 29.0491C178.61 30.2547 178.509 31.4756 178.174 32.642L146.686 142.456C146.132 144.382 144.968 146.077 143.369 147.284C141.77 148.492 139.821 149.148 137.817 149.154ZM145.06 17.2662C143.785 17.2697 142.545 17.6871 141.527 18.4557C140.509 19.2244 139.769 20.3026 139.416 21.5284L107.928 131.342C107.715 132.084 107.65 132.861 107.738 133.629C107.825 134.396 108.063 135.138 108.437 135.814C108.812 136.489 109.315 137.084 109.92 137.565C110.524 138.045 111.217 138.402 111.96 138.615L136.183 145.561C136.926 145.774 137.703 145.838 138.47 145.751C139.237 145.663 139.98 145.426 140.655 145.051C141.33 144.677 141.925 144.173 142.406 143.569C142.887 142.964 143.243 142.271 143.456 141.529L174.945 31.718C175.158 30.9757 175.222 30.1987 175.135 29.4315C175.047 28.6642 174.81 27.9217 174.435 27.2463C174.061 26.571 173.557 25.9759 172.953 25.4952C172.348 25.0146 171.655 24.6577 170.913 24.4449L146.689 17.4968C146.16 17.3444 145.611 17.2667 145.06 17.2662Z" fill="#330E00"/>
<path d="M147.017 15.9575L171.234 22.9127C173.161 23.4661 174.789 24.7623 175.76 26.5161C176.732 28.2699 176.966 30.3376 176.413 32.2645L170.849 51.6382L132.101 40.5099L137.665 21.1361C138.219 19.2093 139.515 17.5812 141.269 16.61C143.023 15.6389 145.09 15.4042 147.017 15.9575Z" fill="#BD3F3A"/>
<path d="M155.722 106.531C155.566 106.53 155.41 106.508 155.26 106.465L116.502 95.3514C116.074 95.2286 115.712 94.9408 115.496 94.5511C115.279 94.1615 115.227 93.702 115.35 93.2737L136.187 20.6023C136.862 18.2467 138.446 16.2559 140.589 15.0678C142.732 13.8797 145.26 13.5916 147.615 14.267L171.839 21.213C173.005 21.5474 174.095 22.1083 175.044 22.8637C175.994 23.6191 176.785 24.5541 177.374 25.6154C177.962 26.6767 178.335 27.8435 178.473 29.0491C178.61 30.2547 178.509 31.4756 178.174 32.642L157.336 105.313C157.235 105.664 157.024 105.972 156.732 106.192C156.441 106.411 156.087 106.53 155.722 106.531ZM119.041 92.5865L154.57 102.772L174.945 31.718C175.158 30.9757 175.222 30.1988 175.135 29.4315C175.047 28.6642 174.81 27.9217 174.435 27.2463C174.061 26.571 173.557 25.9759 172.953 25.4953C172.348 25.0146 171.655 24.6577 170.913 24.4449L146.689 17.4968C145.947 17.284 145.17 17.2194 144.403 17.3068C143.636 17.3943 142.893 17.632 142.218 18.0064C141.542 18.3808 140.947 18.8846 140.467 19.489C139.986 20.0933 139.629 20.7865 139.416 21.5288L119.041 92.5865Z" fill="#330E00"/>
<path d="M170.851 51.636L132.103 40.5077L124.453 67.1466L163.2 78.2749L170.851 51.636Z" fill="#A33500"/>
<path d="M163.363 79.8844C163.206 79.8845 163.05 79.8624 162.899 79.8189L124.141 68.7053C123.929 68.6445 123.731 68.5425 123.558 68.4051C123.385 68.2678 123.242 68.0977 123.135 67.9047C123.028 67.7118 122.96 67.4996 122.935 67.2804C122.91 67.0612 122.928 66.8392 122.989 66.6271L130.63 39.9811C130.753 39.5528 131.041 39.1908 131.431 38.9748C131.82 38.7587 132.28 38.7063 132.708 38.829L171.466 49.9427C171.679 50.0035 171.877 50.1055 172.049 50.2429C172.222 50.3802 172.366 50.5502 172.473 50.7432C172.58 50.9362 172.647 51.1483 172.672 51.3675C172.697 51.5868 172.679 51.8087 172.618 52.0208L164.977 78.6673C164.877 79.0179 164.665 79.3263 164.374 79.5459C164.083 79.7655 163.728 79.8843 163.363 79.8844ZM126.682 65.9404L162.21 76.128L168.925 52.7117L133.396 42.5242L126.682 65.9404Z" fill="#330E00"/>
<path d="M163.362 78.2038L124.604 67.0901L116.963 93.7363L155.721 104.85L163.362 78.2038Z" fill="#6D2300"/>
<path d="M155.722 106.531C155.566 106.531 155.41 106.508 155.26 106.465L116.502 95.3514C116.074 95.2286 115.712 94.9407 115.496 94.5511C115.279 94.1614 115.227 93.7019 115.35 93.2736L122.991 66.6271C123.114 66.1988 123.401 65.8369 123.791 65.6208C124.181 65.4048 124.64 65.3523 125.069 65.4751L163.827 76.5891C164.039 76.6499 164.237 76.7519 164.41 76.8892C164.582 77.0266 164.726 77.1966 164.833 77.3896C164.94 77.5825 165.008 77.7947 165.033 78.0139C165.058 78.2332 165.04 78.4552 164.979 78.6673L157.338 105.313C157.237 105.664 157.025 105.973 156.734 106.192C156.442 106.412 156.087 106.531 155.722 106.531ZM119.041 92.5865L154.57 102.772L161.285 79.3561L125.757 69.1681L119.041 92.5865Z" fill="#330E00"/>
<path d="M116.319 136.605C115.201 136.607 114.114 136.237 113.228 135.554C112.343 134.871 111.711 133.912 111.43 132.83C111.149 131.747 111.236 130.602 111.678 129.575C112.119 128.547 112.89 127.696 113.868 127.155C114.541 126.782 115.29 126.569 116.058 126.531C116.826 126.493 117.592 126.631 118.298 126.934C119.005 127.238 119.632 127.699 120.133 128.282C120.633 128.865 120.994 129.555 121.187 130.299C121.38 131.044 121.4 131.822 121.246 132.575C121.092 133.328 120.768 134.036 120.298 134.645C119.828 135.253 119.225 135.746 118.536 136.086C117.846 136.425 117.088 136.603 116.319 136.605ZM116.31 129.882C115.884 129.882 115.474 130.043 115.162 130.334C114.851 130.624 114.661 131.022 114.631 131.447C114.602 131.872 114.734 132.292 115.002 132.623C115.27 132.954 115.654 133.171 116.075 133.23C116.497 133.29 116.926 133.187 117.274 132.943C117.623 132.699 117.867 132.331 117.956 131.915C118.044 131.498 117.972 131.064 117.753 130.698C117.534 130.333 117.184 130.065 116.775 129.947C116.623 129.904 116.466 129.882 116.308 129.882H116.31Z" fill="#330E00"/>
<g style="mix-blend-mode:overlay" opacity="0.3">
<path d="M142.153 13.1204H116.953C112.778 13.1204 109.393 16.5051 109.393 20.6804V134.92C109.393 139.096 112.778 142.48 116.953 142.48H142.153C146.328 142.48 149.713 139.096 149.713 134.92V20.6804C149.713 16.5051 146.328 13.1204 142.153 13.1204Z" fill="#2D2D2D"/>
<path d="M142.153 13.1204H116.953C112.778 13.1204 109.393 16.5051 109.393 20.6804V134.92C109.393 139.096 112.778 142.48 116.953 142.48H142.153C146.328 142.48 149.713 139.096 149.713 134.92V20.6804C149.713 16.5051 146.328 13.1204 142.153 13.1204Z" stroke="#2D2D2D" stroke-width="8" stroke-linecap="round" stroke-linejoin="round"/>
</g>
<path d="M138.793 11.4404H113.593C109.418 11.4404 106.033 14.8251 106.033 19.0004V133.24C106.033 137.416 109.418 140.8 113.593 140.8H138.793C142.968 140.8 146.353 137.416 146.353 133.24V19.0004C146.353 14.8251 142.968 11.4404 138.793 11.4404Z" fill="white"/>
<path d="M138.793 142.48H113.593C111.143 142.478 108.795 141.503 107.062 139.771C105.33 138.039 104.356 135.69 104.353 133.24V19.0004C104.356 16.5507 105.33 14.202 107.062 12.4698C108.795 10.7376 111.143 9.76318 113.593 9.7604H138.793C141.243 9.76318 143.591 10.7376 145.324 12.4698C147.056 14.202 148.03 16.5507 148.033 19.0004V133.24C148.03 135.69 147.056 138.039 145.324 139.771C143.591 141.503 141.243 142.478 138.793 142.48ZM113.593 13.1204C112.034 13.1221 110.539 13.7421 109.437 14.8445C108.335 15.9468 107.715 17.4414 107.713 19.0004V133.24C107.715 134.799 108.335 136.294 109.437 137.396C110.539 138.499 112.034 139.119 113.593 139.12H138.793C140.352 139.119 141.846 138.499 142.949 137.396C144.051 136.294 144.671 134.799 144.673 133.24V19.0004C144.671 17.4415 144.051 15.9469 142.949 14.8446C141.846 13.7423 140.352 13.1222 138.793 13.1204H113.593Z" fill="#330E00"/>
<path d="M146.353 96.2804H106.033C105.587 96.2804 105.16 96.1034 104.845 95.7883C104.53 95.4733 104.353 95.046 104.353 94.6004V19.0004C104.356 16.5507 105.33 14.202 107.062 12.4698C108.795 10.7376 111.143 9.76318 113.593 9.7604H138.793C141.243 9.76318 143.591 10.7376 145.324 12.4698C147.056 14.202 148.03 16.5507 148.033 19.0004V94.6004C148.033 95.046 147.856 95.4733 147.541 95.7883C147.226 96.1034 146.799 96.2804 146.353 96.2804ZM107.713 92.9204H144.673V19.0004C144.671 17.4415 144.051 15.9469 142.949 14.8446C141.846 13.7423 140.352 13.1222 138.793 13.1204H113.593C112.034 13.1221 110.539 13.7421 109.437 14.8445C108.335 15.9468 107.715 17.4414 107.713 19.0004V92.9204Z" fill="#330E00"/>
<path d="M113.593 11.4404H138.793C140.798 11.4404 142.721 12.2369 144.139 13.6547C145.556 15.0725 146.353 16.9954 146.353 19.0004V39.1604H106.033V19.0004C106.033 16.9954 106.829 15.0725 108.247 13.6547C109.665 12.2369 111.588 11.4404 113.593 11.4404Z" fill="#FF9999"/>
<path d="M146.353 40.8408H106.033C105.587 40.8408 105.16 40.6638 104.845 40.3488C104.53 40.0337 104.353 39.6064 104.353 39.1608V19.0008C104.356 16.5511 105.33 14.2025 107.062 12.4702C108.795 10.738 111.143 9.76361 113.593 9.76083H138.793C141.243 9.76361 143.591 10.738 145.324 12.4702C147.056 14.2025 148.03 16.5511 148.033 19.0008V39.1608C148.033 39.6064 147.856 40.0337 147.541 40.3488C147.226 40.6638 146.799 40.8408 146.353 40.8408ZM107.713 37.4808H144.673V19.0008C144.671 17.4419 144.051 15.9473 142.949 14.845C141.846 13.7427 140.352 13.1226 138.793 13.1208H113.593C112.034 13.1225 110.539 13.7425 109.437 14.8449C108.335 15.9472 107.715 17.4419 107.713 19.0008V37.4808Z" fill="#330E00"/>
<path d="M146.353 39.1604H106.033V66.8804H146.353V39.1604Z" fill="#FF0000"/>
<path d="M146.353 39.1604H106.033V66.8804H146.353V39.1604Z" fill="#FF3333" stroke="#330E00" stroke-width="8" stroke-linecap="round" stroke-linejoin="round"/>
<path d="M146.353 66.8804H106.033V94.6004H146.353V66.8804Z" fill="#BF0000"/>
<path d="M146.353 96.2804H106.033C105.587 96.2804 105.16 96.1034 104.845 95.7883C104.53 95.4732 104.353 95.0459 104.353 94.6004V66.8804C104.353 66.4348 104.53 66.0075 104.845 65.6924C105.16 65.3774 105.587 65.2004 106.033 65.2004H146.353C146.799 65.2004 147.226 65.3774 147.541 65.6924C147.856 66.0075 148.033 66.4348 148.033 66.8804V94.6004C148.033 95.0459 147.856 95.4732 147.541 95.7883C147.226 96.1034 146.799 96.2804 146.353 96.2804ZM107.713 92.9204H144.673V68.5604H107.713V92.9204Z" fill="#330E00"/>
<path d="M115.833 136.18C114.836 136.18 113.862 135.885 113.033 135.331C112.204 134.777 111.558 133.99 111.177 133.069C110.795 132.148 110.696 131.135 110.89 130.157C111.085 129.179 111.565 128.281 112.269 127.577C112.974 126.872 113.872 126.392 114.85 126.197C115.828 126.003 116.841 126.103 117.762 126.484C118.683 126.865 119.47 127.511 120.024 128.34C120.578 129.169 120.873 130.144 120.873 131.14C120.872 132.477 120.34 133.758 119.395 134.703C118.451 135.647 117.169 136.179 115.833 136.18ZM115.833 129.46C115.501 129.46 115.176 129.559 114.9 129.744C114.624 129.928 114.408 130.191 114.281 130.497C114.154 130.804 114.121 131.142 114.186 131.468C114.25 131.794 114.41 132.093 114.645 132.328C114.88 132.563 115.18 132.723 115.505 132.788C115.831 132.853 116.169 132.82 116.476 132.692C116.783 132.565 117.045 132.35 117.23 132.074C117.415 131.797 117.513 131.473 117.513 131.14C117.513 130.695 117.336 130.268 117.021 129.952C116.706 129.637 116.279 129.46 115.833 129.46Z" fill="#330E00"/>
</svg>
