<svg width="24" height="27" viewBox="0 0 24 27" fill="none" xmlns="http://www.w3.org/2000/svg">
<path d="M15.1324 26.4118H4.63235C2.07807 26.4118 0 24.3337 0 21.7794V15.2555C0 12.7012 2.07807 10.6232 4.63235 10.6232H7.72059C8.147 10.6232 8.49265 10.9688 8.49265 11.3952C8.49265 11.8216 8.147 12.1673 7.72059 12.1673H4.63235C2.9295 12.1673 1.54412 13.5527 1.54412 15.2555V21.7794C1.54412 23.4823 2.9295 24.8677 4.63235 24.8677H15.1324C16.8352 24.8677 18.2206 23.4823 18.2206 21.7794V17.3401C18.2206 16.9137 18.5662 16.568 18.9926 16.568C19.4191 16.568 19.7647 16.9137 19.7647 17.3401V21.7794C19.7647 24.3337 17.6866 26.4118 15.1324 26.4118ZM12.6925 20.0577L13.9801 19.0728C14.3188 18.8138 14.3833 18.3292 14.1243 17.9905C13.8652 17.6519 13.3807 17.5873 13.042 17.8464L11.7552 18.8306C10.6525 19.6716 9.11219 19.6717 8.00861 18.8299L4.32762 16.0307C3.98822 15.7726 3.50387 15.8385 3.24574 16.1779C2.98764 16.5173 3.05353 17.0017 3.39297 17.2598L7.07306 20.0583C7.89998 20.689 8.89095 21.0044 9.88208 21.0044C10.8734 21.0044 11.8649 20.6888 12.6925 20.0577Z" fill="black"/>
<circle cx="16.2353" cy="8.76471" r="7.76471" fill="#FF6565"/>
<path d="M17.201 7.85C17.8143 7.95 18.2843 8.18 18.611 8.54C18.9377 8.89333 19.101 9.33333 19.101 9.86C19.101 10.2667 18.9943 10.6433 18.781 10.99C18.5677 11.33 18.241 11.6033 17.801 11.81C17.3677 12.0167 16.8343 12.12 16.201 12.12C15.7077 12.12 15.221 12.0567 14.741 11.93C14.2677 11.7967 13.8643 11.61 13.531 11.37L14.161 10.13C14.4277 10.33 14.7343 10.4867 15.081 10.6C15.4343 10.7067 15.7943 10.76 16.161 10.76C16.5677 10.76 16.8877 10.6833 17.121 10.53C17.3543 10.37 17.471 10.1467 17.471 9.86C17.471 9.28667 17.0343 9 16.161 9H15.421V7.93L16.861 6.3H13.881V5H18.781V6.05L17.201 7.85Z" fill="white"/>
</svg>
